<svg id="volunteer_activism_black_24dp" xmlns="http://www.w3.org/2000/svg" width="49.605" height="49.605" viewBox="0 0 49.605 49.605">
  <g id="Group_14" data-name="Group 14">
    <rect id="Rectangle_8" data-name="Rectangle 8" width="49.605" height="49.605" fill="none"/>
  </g>
  <g id="Group_16" data-name="Group 16">
    <g id="Group_15" data-name="Group 15">
      <rect id="Rectangle_9" data-name="Rectangle 9" width="8.267" height="22.735" transform="translate(2.067 22.735)" fill="#e084c0"/>
      <path id="Path_8" data-name="Path 8" d="M33.07,6.717A7.476,7.476,0,0,1,38.65,4.134a6.749,6.749,0,0,1,6.821,6.821c0,4.692-6.015,10.128-12.4,15.915-6.387-5.808-12.4-11.244-12.4-15.915a6.749,6.749,0,0,1,6.821-6.821A7.476,7.476,0,0,1,33.07,6.717Z" fill="#e084c0"/>
      <path id="Path_9" data-name="Path 9" d="M41.337,35.137H26.869l-4.32-1.509.682-1.943,3.638,1.385H32.7a2.443,2.443,0,0,0,2.439-2.439h0a2.482,2.482,0,0,0-1.591-2.294l-15.005-5.6H14.468V41.379l14.468,4.092,16.556-6.2h0A4.164,4.164,0,0,0,41.337,35.137Z" fill="#e084c0"/>
    </g>
  </g>
</svg>
